<?xml version="1.0" standalone="no"?>
<!DOCTYPE svg PUBLIC "-//W3C//DTD SVG 20010904//EN"
 "http://www.w3.org/TR/2001/REC-SVG-20010904/DTD/svg10.dtd">
<svg version="1.0" xmlns="http://www.w3.org/2000/svg"
 width="415.000000pt" height="267.000000pt" viewBox="0 0 415.000000 267.000000"
 preserveAspectRatio="xMidYMid meet">

<g transform="translate(0.000000,267.000000) scale(0.100000,-0.100000)"
fill="#000000" stroke="none">
<path d="M0 1335 l0 -1335 2075 0 2075 0 0 1335 0 1335 -2075 0 -2075 0 0
-1335z m2497 1190 c25 -16 51 -41 62 -63 10 -20 33 -47 50 -60 44 -32 62 -73
81 -187 l17 -100 69 3 c64 3 73 1 117 -29 27 -17 56 -44 64 -58 9 -14 36 -46
59 -71 80 -84 83 -183 6 -252 -38 -34 -127 -65 -247 -85 l-50 -8 -3 -126 -3
-126 94 1 c87 1 96 -1 134 -27 22 -15 46 -40 54 -55 7 -15 35 -50 60 -78 69
-74 78 -155 27 -231 -39 -58 -103 -81 -281 -99 l-68 -6 7 -207 c6 -198 6 -208
-15 -257 -16 -35 -34 -58 -64 -78 -38 -25 -49 -27 -111 -24 -67 4 -68 4 -113
53 -24 28 -64 71 -87 96 -51 55 -54 67 -63 226 l-6 123 -36 0 c-56 -1 -266
-45 -266 -55 0 -6 4 -96 9 -200 9 -219 -1 -280 -55 -333 -80 -79 -239 -52
-284 48 -10 22 -26 42 -37 46 -10 3 -31 24 -46 47 -26 39 -27 47 -30 188 l-4
148 -106 -6 c-104 -5 -108 -4 -149 23 -25 16 -49 43 -59 66 -10 21 -30 46 -45
55 -79 47 -84 224 -7 277 36 26 111 47 231 65 l112 17 3 89 c4 133 5 131 -77
139 -83 8 -139 43 -171 106 -11 22 -25 40 -31 40 -16 0 -59 51 -75 89 -18 43
-18 78 1 132 29 82 61 101 201 124 54 8 106 18 115 20 14 5 15 27 11 179 -5
199 6 256 59 300 73 62 196 56 247 -12 15 -19 48 -57 73 -83 54 -56 77 -119
86 -231 3 -43 11 -78 16 -78 17 0 242 42 246 47 6 5 3 176 -5 234 -3 26 -1 73
5 105 28 152 150 213 278 139z"/>
<path d="M2349 2493 c-58 -36 -63 -59 -61 -273 1 -107 -1 -200 -5 -206 -5 -6
-69 -21 -143 -33 -74 -13 -144 -27 -156 -32 -46 -17 -139 -22 -151 -8 -6 8
-13 83 -17 166 -8 186 -23 243 -70 272 -40 25 -103 27 -135 5 -46 -33 -53 -71
-50 -283 2 -108 0 -202 -4 -208 -7 -11 -89 -27 -206 -39 -52 -5 -70 -12 -92
-34 -33 -33 -44 -68 -35 -116 16 -81 98 -124 200 -105 92 17 135 21 140 13 3
-5 8 -64 11 -133 3 -68 8 -167 11 -220 4 -75 2 -98 -9 -107 -13 -11 -51 -18
-232 -43 -122 -17 -170 -50 -170 -117 0 -59 22 -97 66 -117 37 -17 44 -17 186
3 134 20 149 20 160 6 8 -11 12 -82 13 -226 0 -151 4 -219 14 -242 27 -64 129
-83 190 -35 47 37 55 156 30 454 -5 60 -3 73 13 87 16 15 112 34 421 84 69 11
69 11 76 -169 10 -251 14 -281 45 -317 54 -65 163 -44 198 38 13 31 14 60 7
187 -12 218 -11 272 6 288 9 8 73 21 154 32 151 18 184 32 206 86 23 55 -14
129 -77 155 -29 13 -49 12 -149 -2 -155 -22 -164 -19 -164 73 -1 73 -7 207
-15 314 -7 92 -7 92 205 135 98 19 134 40 150 89 16 48 -1 92 -47 128 -42 32
-54 32 -196 11 -59 -9 -110 -14 -114 -10 -3 3 -8 32 -10 64 -9 151 -25 278
-39 311 -35 83 -95 112 -155 74z m-46 -767 c3 -7 11 -109 17 -225 11 -184 11
-215 -2 -227 -8 -8 -66 -23 -134 -34 -325 -52 -326 -52 -340 -38 -18 18 -32
415 -16 445 10 17 30 24 109 38 54 9 139 25 188 35 112 23 171 25 178 6z"/>
<path d="M2120 1529 c-58 -11 -115 -22 -128 -25 -22 -4 -23 -7 -20 -117 l3
-112 60 3 c85 4 217 30 228 45 4 6 6 39 3 71 -4 32 -6 81 -6 107 0 57 9 55
-140 28z"/>
</g>
</svg>
