<svg xmlns="http://www.w3.org/2000/svg" width="449" height="449" viewBox="0 0 449 449" fill="none">
  <path d="M232 448.002C170.47 448.002 111.46 423.56 67.9512 380.051C24.4428 336.543 0 277.533 0 216.002C0 122.002 54 37.7225 137.61 1.33249C140.557 0.048238 143.822 -0.318686 146.98 0.279533C150.138 0.877752 153.043 2.41337 155.316 4.6863C157.589 6.95923 159.125 9.86407 159.723 13.0223C160.321 16.1806 159.954 19.4458 158.67 22.3925C149.07 44.4325 144 72.6625 144 104.002C144 214.282 233.72 304.002 344 304.002C375.34 304.002 403.57 298.932 425.61 289.332C428.557 288.048 431.822 287.681 434.98 288.28C438.138 288.878 441.043 290.413 443.316 292.686C445.589 294.959 447.125 297.864 447.723 301.022C448.321 304.181 447.954 307.446 446.67 310.392C410.28 394.002 326 448.002 232 448.002Z" fill="black"/>
</svg>